# xmcd
#
# Track frame offsets:
#	150
#	16806
#	30635
#	48584
#	63321
#	79275
#	90140
#	103820
#	118992
#	133890
#
# Disc length: 1987 seconds
#
# Revision: 1
# Processed by: cddbd v1.4PL0 Copyright (c) Steve Scherf et al.
# Submitted via: audiograbber 1.81.02
#
DISCID=8107c10a
DTITLE=Βαλιάνος Νικόλαος - Τα κλειδιά του παραδείσου μου
DYEAR=2004
DGENRE=Pop-Folk
TTITLE0=Ο Καπετάνιος
TTITLE1=Τα Ονειρά μου
TTITLE2=Είσαι Δεμένη
TTITLE3=Σε συγχωρώ
TTITLE4=Ανοίξτε δρόμοι να διαβώ
TTITLE5=φθινόπωρο καρδιάς
TTITLE6=Αχ Νικολέτα
TTITLE7=Μελαγχόλησες καρδιά μου
TTITLE8=Ανθίσανε οι πασχαλιές
TTITLE9=Ο δρόμος της ζωής
EXTD=
EXTT0=
EXTT1=
EXTT2=
EXTT3=
EXTT4=
EXTT5=
EXTT6=
EXTT7=
EXTT8=
EXTT9=
PLAYORDER=
